<svg width="1356px" height="376px" viewBox="0 0 1356 376" version="1.1" xmlns="http://www.w3.org/2000/svg" xmlns:xlink="http://www.w3.org/1999/xlink">
    <!-- Generator: Sketch 48.1 (47250) - http://www.bohemiancoding.com/sketch -->
    <desc>Created with Sketch.</desc>
    <defs></defs>
    <g id="Symbols" stroke="none" stroke-width="1" fill="none" fill-rule="evenodd">
        <g id="Artboard">
            <g id="Old-icon" transform="translate(50.000000, 35.000000)" fill-rule="nonzero">
                <g id="OBS">
                    <g id="#ffffffff" fill="#FFFFFF">
                        <path d="M131.40359,1.65448433 C163.710641,-2.67766846 197.390256,3.66491451 225.722051,19.8521201 C257.65359,37.8033161 282.631667,67.7652111 294.415,102.500257 C305.382564,134.329906 305.278974,169.856153 294.130128,201.62095 C281.777051,237.354725 255.42641,267.913264 222.018718,285.488315 C178.187308,309.068715 122.598462,308.705541 79.0778205,284.554438 C48.1044872,267.679795 23.3594872,239.624566 10.605,206.692422 C-1.98115385,174.668215 -3.06884615,138.324825 7.41961538,105.574269 C17.0275641,75.2232586 36.5930769,48.2186415 62.2574359,29.4503029 C82.4962821,14.5860901 106.516154,4.89711366 131.40359,1.65448433 Z M130.225256,16.0517586 C101.336667,20.5395575 74.0537179,34.6774214 53.6983333,55.6896595 C29.2252564,80.5152296 14.7874359,115.029776 14.6838462,149.959379 C14.1788462,180.491977 24.3694872,211.063486 43.0285897,235.21459 C62.5811538,260.844332 91.405,279.223555 122.935128,285.851489 C153.843718,292.518335 187.031282,288.095389 215.013462,273.296029 C245.32641,257.510909 269.281538,229.96153 280.689359,197.703854 C292.161923,165.718558 291.203718,129.42705 277.866538,98.1681037 C265.202692,68.037592 241.39,42.7969653 212.061154,28.4386026 C186.940641,15.9479944 157.909615,11.6806942 130.225256,16.0517586 Z" id="Shape"></path>
                    </g>
                    <g id="#302e31ff" transform="translate(14.000000, 14.000000)" fill="#000000">
                        <path d="M116.027042,1.78531097 C143.722232,-2.5873101 172.764616,1.68150987 197.894957,14.1765665 C227.235277,28.5400429 251.057286,53.7896589 263.726087,83.9309015 C277.068484,115.200981 278.027064,151.505413 266.550011,183.502101 C255.137728,215.771266 231.173228,243.330456 200.84842,259.121197 C172.855292,273.925828 139.654744,278.35035 108.734062,271.68113 C77.1915983,265.050835 48.3564753,246.665066 28.7962616,221.026196 C10.129859,196.866491 -0.0647689195,166.284094 0.440428653,135.740622 C0.544058924,100.798579 14.987528,66.2717404 39.4701796,41.4373287 C59.8335279,20.4176073 87.1271506,6.27470827 116.027042,1.78531097 Z M63.7973858,61.5228404 C59.9501119,78.5462197 62.7869906,96.6205852 70.4685845,112.164799 C75.3132996,112.605954 80.1709686,112.995208 84.9509149,113.851567 C100.080934,117.004525 113.967391,125.996295 122.814825,138.711929 C134.64163,155.021675 137.323063,177.274035 130.289159,196.087983 C123.954758,213.35789 109.550151,227.371038 92.1273112,233.157949 C79.1605735,237.777097 64.9761801,237.115365 51.9058121,233.300675 C66.4140501,239.892045 82.904217,242.435171 98.5782955,239.139487 C118.980505,235.285871 137.763492,222.37561 148.16538,204.34017 C140.691047,189.730166 138.644349,172.317533 143.411342,156.526791 C149.214637,136.869459 165.458682,120.741364 185.122526,115.084205 C200.874327,110.309354 218.452612,112.372401 232.779497,120.442936 C247.585672,128.643223 258.453897,143.175376 262.754553,159.524048 C262.391847,147.197668 257.067842,135.364343 250.254151,125.256712 C237.028338,105.923758 214.359216,93.8698562 191.042405,93.0783728 C180.187134,112.411327 158.372962,125.243737 136.118361,124.244651 C107.451638,124.556055 80.987057,101.628988 76.5050478,73.3950905 C72.955711,54.7757693 78.7719599,34.6772825 91.6221136,20.7809111 C94.7439755,17.0440717 98.8632788,14.3841687 102.25717,10.9327823 C82.7358178,20.8198365 68.2275798,40.0879145 63.7973858,61.5228404 Z" id="Shape"></path>
                    </g>
                    <g id="#c4c2c4ff" transform="translate(66.000000, 25.000000)" fill="#EEEEEE">
                        <path d="M11.9739264,51.063139 C16.4010429,29.6611918 30.8992025,10.4227587 50.4069939,0.55091623 C47.0154601,3.99699247 42.8990184,6.65280311 39.7793252,10.3838932 C26.9380982,24.2588843 21.1258896,44.3264486 24.6727607,62.9171231 C29.1516564,91.1075813 55.5978528,113.999373 84.2446626,113.688449 C106.483804,114.685998 128.282822,101.873331 139.130552,82.5701218 C162.431166,83.3603874 185.08454,95.3957439 198.301166,114.698953 C205.110123,124.791033 210.430429,136.606152 210.792883,148.913567 C206.495215,132.590048 195.63454,118.080253 180.83865,109.892583 C166.521718,101.834465 148.955644,99.7745926 133.214785,104.542097 C113.564601,110.190552 97.3318405,126.293833 91.5325767,145.920922 C86.7688957,161.687368 88.8141718,179.073212 96.2833129,193.660737 C85.8886503,211.668429 67.1187117,224.558827 46.7306748,228.406514 C31.0674847,231.697128 14.588773,229.157914 0.0906134969,222.576685 C13.1519018,226.385507 27.3264417,227.04622 40.2841718,222.434178 C57.694908,216.656171 72.0895092,202.664583 78.4195092,185.421247 C85.4485276,166.636245 82.7689571,144.418122 70.9503681,128.133468 C62.1090798,115.437398 48.2322699,106.459462 33.1127607,103.311355 C28.336135,102.456314 23.4818405,102.067658 18.6404908,101.627182 C10.9642331,86.1068842 8.12932515,68.0603271 11.9739264,51.063139 Z" id="Shape"></path>
                    </g>
                </g>
            </g>
            <text id="Made-for-OBS-Studio" font-family="PTSans-Bold, PT Sans" font-size="99" font-weight="bold" fill="#000000">
                <tspan x="409" y="159">Made for OBS Studio </tspan>
                <tspan x="409" y="275">on mac</tspan>
            </text>
        </g>
    </g>
</svg>