<svg width="200" height="200" viewBox="0 0 200 200" fill="none" xmlns="http://www.w3.org/2000/svg">
<rect width="200" height="200" fill="#101827"/>
<g clip-path="url(#clip0_142_2577)">
<path fill-rule="evenodd" clip-rule="evenodd" d="M153.491 145.492C155.565 144.664 156.578 142.306 155.738 140.203L113.874 35.3851C113.035 33.2861 110.676 32.269 108.601 33.0974L99.5675 36.7044C98.5205 37.1225 98.0056 38.3218 98.4256 39.3737C99.0207 40.864 98.2893 42.5676 96.7991 43.1626C95.3089 43.7576 93.6053 43.0262 93.0102 41.536C92.5902 40.4842 91.3958 39.9673 90.3439 40.3873L75.6703 46.2464C74.6185 46.6664 74.1036 47.8657 74.5236 48.9176C75.1186 50.4079 74.4166 52.0998 72.8971 52.7065C71.407 53.3015 69.7326 52.5584 69.1375 51.0682C68.6398 49.8216 67.3769 49.5579 66.2179 50.0207L57.4325 53.5286C55.3287 54.3686 54.3185 56.7314 55.1566 58.8303L97.0061 163.654C97.8461 165.757 100.204 166.77 102.308 165.93L111.356 162.317C112.379 161.908 112.925 160.702 112.505 159.65C111.91 158.16 112.612 156.468 114.102 155.873C115.621 155.266 117.296 156.009 117.891 157.5C118.309 158.547 119.508 159.062 120.56 158.642L135.234 152.782C136.281 152.364 136.797 151.17 136.377 150.118C135.782 148.628 136.514 146.924 138.004 146.329C139.494 145.734 141.198 146.466 141.793 147.956C142.211 149.003 143.405 149.52 144.457 149.1L153.491 145.492ZM96.5261 86.5291L96.0363 94.6071L89.4315 97.5661C85.5189 99.3204 85.6848 103.512 89.5379 105.214L96.5616 108.367L98.3146 115.967C99.3276 120.271 103.387 121.118 105.873 117.404L110.112 111.166L117.453 112.78C121.819 113.758 124.203 110.339 121.943 106.532L117.979 99.8147L120.929 92.6798C122.523 88.8081 119.759 85.6486 115.709 87.0736L108.883 89.4775L102.993 83.9469C100.302 81.4642 96.7376 82.8875 96.5261 86.5291ZM76.4455 69.4538C76.0371 68.4311 74.8494 67.9455 73.8268 68.3538L70.0672 69.855C69.0153 70.275 68.518 71.4334 68.9264 72.4561C69.3464 73.5081 70.5049 74.0054 71.5568 73.5854L75.3163 72.0842C76.3409 71.6808 76.8655 70.5057 76.4455 69.4538ZM88.7127 64.5556C88.3044 63.5329 87.1459 63.0356 86.0941 63.4556L82.3345 64.9567C81.3118 65.3651 80.8145 66.5235 81.2228 67.5463C81.6428 68.5982 82.8013 69.0955 83.8241 68.6872L87.5836 67.186C88.6374 66.7709 89.1327 65.6075 88.7127 64.5556ZM101.014 59.6437C100.606 58.6211 99.4181 58.1354 98.3954 58.5437L94.6359 60.0449C93.584 60.4649 93.0818 61.6253 93.4902 62.648C93.9102 63.6999 95.0687 64.1973 96.1254 63.7753L99.8849 62.2742C100.91 61.8707 101.434 60.6956 101.014 59.6437ZM113.281 54.7455C112.873 53.7228 111.715 53.2255 110.663 53.6455L106.903 55.1467C105.88 55.555 105.383 56.7135 105.791 57.7362C106.211 58.7881 107.37 59.2855 108.393 58.8771L112.152 57.3759C113.206 56.9608 113.701 55.7974 113.281 54.7455ZM105.116 141.257C104.707 140.234 103.52 139.749 102.497 140.157L98.7375 141.658C97.6856 142.078 97.1883 143.237 97.5967 144.259C98.0167 145.311 99.1752 145.809 100.227 145.389L103.987 143.888C105.009 143.479 105.536 142.309 105.116 141.257ZM117.383 136.359C116.975 135.336 115.816 134.839 114.764 135.259L111.005 136.76C109.982 137.168 109.485 138.327 109.893 139.35C110.313 140.402 111.472 140.899 112.494 140.49L116.254 138.989C117.306 138.569 117.803 137.411 117.383 136.359ZM129.684 131.447C129.276 130.424 128.088 129.939 127.066 130.347L123.306 131.848C122.254 132.268 121.752 133.429 122.16 134.451C122.58 135.503 123.739 136.001 124.796 135.579L128.555 134.077C129.578 133.669 130.104 132.499 129.684 131.447ZM141.952 126.549C141.543 125.526 140.385 125.029 139.333 125.449L135.573 126.95C134.551 127.358 134.053 128.517 134.462 129.54C134.882 130.591 136.04 131.089 137.063 130.68L140.822 129.179C141.874 128.759 142.372 127.601 141.952 126.549Z" fill="white"/>
<path fill-rule="evenodd" clip-rule="evenodd" d="M51.6513 69.5515L54.2107 67.3777L86.1007 147.245L36.1225 87.9595C34.6766 86.2614 34.8913 83.6743 36.6187 82.2167C37.2101 81.7195 37.8034 81.2216 38.3976 80.7229C40.284 79.1397 42.1793 77.549 44.0493 75.9522C44.9105 75.2243 46.2133 75.3478 46.9411 76.2091C47.9774 77.4328 49.8304 77.5907 51.0541 76.5544C52.2728 75.5201 52.4405 73.6914 51.3945 72.4434C50.6695 71.5753 50.7901 70.2793 51.6513 69.5515Z" fill="white"/>
<path fill-rule="evenodd" clip-rule="evenodd" d="M124.194 40.5859L120.407 40.8163L152.816 121.984L148.131 43.2355C148.009 41.0085 146.072 39.2808 143.845 39.4022C140.596 39.6095 137.372 39.8072 134.114 39.9902C132.983 40.0576 132.128 41.0426 132.194 42.1683C132.286 43.7692 131.075 45.1502 129.45 45.2515C127.854 45.341 126.473 44.1307 126.372 42.5055C126.304 41.3749 125.324 40.5184 124.194 40.5859Z" fill="white"/>
<path fill-rule="evenodd" clip-rule="evenodd" d="M109.119 93.6745C108.364 93.9477 107.525 93.7689 106.971 93.1882L100.542 87.1674L99.9997 96.0058C99.966 96.8831 99.4495 97.5128 98.6849 97.8463L91.0916 101.228C91.0478 101.274 90.9357 101.319 90.8529 101.352C90.9805 101.431 91.108 101.51 91.1829 101.542L99.1401 105.095C99.8858 105.435 100.154 105.938 100.328 106.699L102.245 115.035C102.259 115.069 102.271 115.116 102.286 115.17C102.305 115.242 102.327 115.325 102.358 115.403C102.449 115.304 102.508 115.213 102.54 115.138L107.495 107.806C108.042 107.012 108.826 106.727 109.781 106.956L118.319 108.838C118.394 108.87 118.5 108.895 118.633 108.904C118.604 108.831 118.564 108.758 118.529 108.694C118.502 108.643 118.477 108.597 118.462 108.56L114.155 101.308C113.748 100.601 113.528 100.051 113.876 99.2396L117.186 91.1536C117.218 91.0786 117.281 90.9237 117.295 90.7884C117.212 90.8215 117.129 90.8545 117.036 90.8632L109.119 93.6745Z" fill="white"/>
</g>
<defs>
<clipPath id="clip0_142_2577">
<rect width="144" height="144" fill="white" transform="translate(27 28)"/>
</clipPath>
</defs>
</svg>
