<svg width="449" height="314" viewBox="0 0 449 314" fill="none" xmlns="http://www.w3.org/2000/svg">
<g clip-path="url(#clip0)">
<rect width="449" height="314" fill="#FEE9E4"/>
<rect x="95" y="103" width="259" height="108" fill="#E4FEE7"/>
<rect x="125" y="128" width="199" height="58" fill="#90A7F7"/>
<circle cx="152" cy="156" r="13" fill="#7FF198" fill-opacity="0.47"/>
<line x1="151.621" y1="155.687" x2="118.687" y2="103.379" stroke="black" stroke-width="2" stroke-linecap="round" stroke-linejoin="bevel"/>
<line x1="119.62" y1="105.692" x2="52.6924" y2="0.380355" stroke="black" stroke-opacity="0.17" stroke-width="2" stroke-linecap="round" stroke-linejoin="bevel" stroke-dasharray="5 5"/>
<path d="M163.289 151.881C163 152.295 162.596 152.605 162.076 152.812C161.561 153.016 160.959 153.117 160.271 153.117C159.576 153.117 158.959 152.955 158.42 152.631C157.881 152.303 157.463 151.838 157.166 151.236C156.873 150.635 156.723 149.938 156.715 149.145V148.4C156.715 147.115 157.014 146.119 157.611 145.412C158.213 144.705 159.057 144.352 160.143 144.352C161.033 144.352 161.75 144.58 162.293 145.037C162.836 145.49 163.168 146.135 163.289 146.971H162.164C161.953 145.842 161.281 145.277 160.148 145.277C159.395 145.277 158.822 145.543 158.432 146.074C158.045 146.602 157.85 147.367 157.846 148.371V149.068C157.846 150.025 158.064 150.787 158.502 151.354C158.939 151.916 159.531 152.197 160.277 152.197C160.699 152.197 161.068 152.15 161.385 152.057C161.701 151.963 161.963 151.805 162.17 151.582V149.666H160.195V148.752H163.289V151.881ZM167.631 153.117C166.771 153.117 166.072 152.836 165.533 152.273C164.994 151.707 164.725 150.951 164.725 150.006V149.807C164.725 149.178 164.844 148.617 165.082 148.125C165.324 147.629 165.66 147.242 166.09 146.965C166.523 146.684 166.992 146.543 167.496 146.543C168.32 146.543 168.961 146.814 169.418 147.357C169.875 147.9 170.104 148.678 170.104 149.689V150.141H165.809C165.824 150.766 166.006 151.271 166.354 151.658C166.705 152.041 167.15 152.232 167.689 152.232C168.072 152.232 168.396 152.154 168.662 151.998C168.928 151.842 169.16 151.635 169.359 151.377L170.021 151.893C169.49 152.709 168.693 153.117 167.631 153.117ZM167.496 147.434C167.059 147.434 166.691 147.594 166.395 147.914C166.098 148.23 165.914 148.676 165.844 149.25H169.02V149.168C168.988 148.617 168.84 148.191 168.574 147.891C168.309 147.586 167.949 147.434 167.496 147.434ZM175.055 151.318C175.055 151.025 174.943 150.799 174.721 150.639C174.502 150.475 174.117 150.334 173.566 150.217C173.02 150.1 172.584 149.959 172.26 149.795C171.939 149.631 171.701 149.436 171.545 149.209C171.393 148.982 171.316 148.713 171.316 148.4C171.316 147.881 171.535 147.441 171.973 147.082C172.414 146.723 172.977 146.543 173.66 146.543C174.379 146.543 174.961 146.729 175.406 147.1C175.855 147.471 176.08 147.945 176.08 148.523H174.99C174.99 148.227 174.863 147.971 174.609 147.756C174.359 147.541 174.043 147.434 173.66 147.434C173.266 147.434 172.957 147.52 172.734 147.691C172.512 147.863 172.4 148.088 172.4 148.365C172.4 148.627 172.504 148.824 172.711 148.957C172.918 149.09 173.291 149.217 173.83 149.338C174.373 149.459 174.812 149.604 175.148 149.771C175.484 149.939 175.732 150.143 175.893 150.381C176.057 150.615 176.139 150.902 176.139 151.242C176.139 151.809 175.912 152.264 175.459 152.607C175.006 152.947 174.418 153.117 173.695 153.117C173.188 153.117 172.738 153.027 172.348 152.848C171.957 152.668 171.65 152.418 171.428 152.098C171.209 151.773 171.1 151.424 171.1 151.049H172.184C172.203 151.412 172.348 151.701 172.617 151.916C172.891 152.127 173.25 152.232 173.695 152.232C174.105 152.232 174.434 152.15 174.68 151.986C174.93 151.818 175.055 151.596 175.055 151.318ZM179.021 145.125V146.66H180.205V147.498H179.021V151.43C179.021 151.684 179.074 151.875 179.18 152.004C179.285 152.129 179.465 152.191 179.719 152.191C179.844 152.191 180.016 152.168 180.234 152.121V153C179.949 153.078 179.672 153.117 179.402 153.117C178.918 153.117 178.553 152.971 178.307 152.678C178.061 152.385 177.938 151.969 177.938 151.43V147.498H176.783V146.66H177.938V145.125H179.021ZM185.391 152.373C184.969 152.869 184.35 153.117 183.533 153.117C182.857 153.117 182.342 152.922 181.986 152.531C181.635 152.137 181.457 151.555 181.453 150.785V146.66H182.537V150.756C182.537 151.717 182.928 152.197 183.709 152.197C184.537 152.197 185.088 151.889 185.361 151.271V146.66H186.445V153H185.414L185.391 152.373ZM191.162 147.633C190.998 147.605 190.82 147.592 190.629 147.592C189.918 147.592 189.436 147.895 189.182 148.5V153H188.098V146.66H189.152L189.17 147.393C189.525 146.826 190.029 146.543 190.682 146.543C190.893 146.543 191.053 146.57 191.162 146.625V147.633ZM194.678 153.117C193.818 153.117 193.119 152.836 192.58 152.273C192.041 151.707 191.771 150.951 191.771 150.006V149.807C191.771 149.178 191.891 148.617 192.129 148.125C192.371 147.629 192.707 147.242 193.137 146.965C193.57 146.684 194.039 146.543 194.543 146.543C195.367 146.543 196.008 146.814 196.465 147.357C196.922 147.9 197.15 148.678 197.15 149.689V150.141H192.855C192.871 150.766 193.053 151.271 193.4 151.658C193.752 152.041 194.197 152.232 194.736 152.232C195.119 152.232 195.443 152.154 195.709 151.998C195.975 151.842 196.207 151.635 196.406 151.377L197.068 151.893C196.537 152.709 195.74 153.117 194.678 153.117ZM194.543 147.434C194.105 147.434 193.738 147.594 193.441 147.914C193.145 148.23 192.961 148.676 192.891 149.25H196.066V149.168C196.035 148.617 195.887 148.191 195.621 147.891C195.355 147.586 194.996 147.434 194.543 147.434ZM204.07 149.197C203.105 148.92 202.402 148.58 201.961 148.178C201.523 147.771 201.305 147.271 201.305 146.678C201.305 146.006 201.572 145.451 202.107 145.014C202.646 144.572 203.346 144.352 204.205 144.352C204.791 144.352 205.312 144.465 205.77 144.691C206.23 144.918 206.586 145.23 206.836 145.629C207.09 146.027 207.217 146.463 207.217 146.936H206.086C206.086 146.42 205.922 146.016 205.594 145.723C205.266 145.426 204.803 145.277 204.205 145.277C203.65 145.277 203.217 145.4 202.904 145.646C202.596 145.889 202.441 146.227 202.441 146.66C202.441 147.008 202.588 147.303 202.881 147.545C203.178 147.783 203.68 148.002 204.387 148.201C205.098 148.4 205.652 148.621 206.051 148.863C206.453 149.102 206.75 149.381 206.941 149.701C207.137 150.021 207.234 150.398 207.234 150.832C207.234 151.523 206.965 152.078 206.426 152.496C205.887 152.91 205.166 153.117 204.264 153.117C203.678 153.117 203.131 153.006 202.623 152.783C202.115 152.557 201.723 152.248 201.445 151.857C201.172 151.467 201.035 151.023 201.035 150.527H202.166C202.166 151.043 202.355 151.451 202.734 151.752C203.117 152.049 203.627 152.197 204.264 152.197C204.857 152.197 205.312 152.076 205.629 151.834C205.945 151.592 206.104 151.262 206.104 150.844C206.104 150.426 205.957 150.104 205.664 149.877C205.371 149.646 204.84 149.42 204.07 149.197ZM209.982 145.125V146.66H211.166V147.498H209.982V151.43C209.982 151.684 210.035 151.875 210.141 152.004C210.246 152.129 210.426 152.191 210.68 152.191C210.805 152.191 210.977 152.168 211.195 152.121V153C210.91 153.078 210.633 153.117 210.363 153.117C209.879 153.117 209.514 152.971 209.268 152.678C209.021 152.385 208.898 151.969 208.898 151.43V147.498H207.744V146.66H208.898V145.125H209.982ZM216.352 153C216.289 152.875 216.238 152.652 216.199 152.332C215.695 152.855 215.094 153.117 214.395 153.117C213.77 153.117 213.256 152.941 212.854 152.59C212.455 152.234 212.256 151.785 212.256 151.242C212.256 150.582 212.506 150.07 213.006 149.707C213.51 149.34 214.217 149.156 215.127 149.156H216.182V148.658C216.182 148.279 216.068 147.979 215.842 147.756C215.615 147.529 215.281 147.416 214.84 147.416C214.453 147.416 214.129 147.514 213.867 147.709C213.605 147.904 213.475 148.141 213.475 148.418H212.385C212.385 148.102 212.496 147.797 212.719 147.504C212.945 147.207 213.25 146.973 213.633 146.801C214.02 146.629 214.443 146.543 214.904 146.543C215.635 146.543 216.207 146.727 216.621 147.094C217.035 147.457 217.25 147.959 217.266 148.6V151.518C217.266 152.1 217.34 152.562 217.488 152.906V153H216.352ZM214.553 152.174C214.893 152.174 215.215 152.086 215.52 151.91C215.824 151.734 216.045 151.506 216.182 151.225V149.924H215.332C214.004 149.924 213.34 150.312 213.34 151.09C213.34 151.43 213.453 151.695 213.68 151.887C213.906 152.078 214.197 152.174 214.553 152.174ZM222.029 147.633C221.865 147.605 221.688 147.592 221.496 147.592C220.785 147.592 220.303 147.895 220.049 148.5V153H218.965V146.66H220.02L220.037 147.393C220.393 146.826 220.896 146.543 221.549 146.543C221.76 146.543 221.92 146.57 222.029 146.625V147.633ZM224.795 145.125V146.66H225.979V147.498H224.795V151.43C224.795 151.684 224.848 151.875 224.953 152.004C225.059 152.129 225.238 152.191 225.492 152.191C225.617 152.191 225.789 152.168 226.008 152.121V153C225.723 153.078 225.445 153.117 225.176 153.117C224.691 153.117 224.326 152.971 224.08 152.678C223.834 152.385 223.711 151.969 223.711 151.43V147.498H222.557V146.66H223.711V145.125H224.795ZM231.527 152.08H235.57V153H230.396V144.469H231.527V152.08ZM236.396 149.771C236.396 149.15 236.518 148.592 236.76 148.096C237.006 147.6 237.346 147.217 237.779 146.947C238.217 146.678 238.715 146.543 239.273 146.543C240.137 146.543 240.834 146.842 241.365 147.439C241.9 148.037 242.168 148.832 242.168 149.824V149.9C242.168 150.518 242.049 151.072 241.811 151.564C241.576 152.053 241.238 152.434 240.797 152.707C240.359 152.98 239.855 153.117 239.285 153.117C238.426 153.117 237.729 152.818 237.193 152.221C236.662 151.623 236.396 150.832 236.396 149.848V149.771ZM237.486 149.9C237.486 150.604 237.648 151.168 237.973 151.594C238.301 152.02 238.738 152.232 239.285 152.232C239.836 152.232 240.273 152.018 240.598 151.588C240.922 151.154 241.084 150.549 241.084 149.771C241.084 149.076 240.918 148.514 240.586 148.084C240.258 147.65 239.82 147.434 239.273 147.434C238.738 147.434 238.307 147.646 237.979 148.072C237.65 148.498 237.486 149.107 237.486 149.9ZM246.07 152.232C246.457 152.232 246.795 152.115 247.084 151.881C247.373 151.646 247.533 151.354 247.564 151.002H248.59C248.57 151.365 248.445 151.711 248.215 152.039C247.984 152.367 247.676 152.629 247.289 152.824C246.906 153.02 246.5 153.117 246.07 153.117C245.207 153.117 244.52 152.83 244.008 152.256C243.5 151.678 243.246 150.889 243.246 149.889V149.707C243.246 149.09 243.359 148.541 243.586 148.061C243.812 147.58 244.137 147.207 244.559 146.941C244.984 146.676 245.486 146.543 246.064 146.543C246.775 146.543 247.365 146.756 247.834 147.182C248.307 147.607 248.559 148.16 248.59 148.84H247.564C247.533 148.43 247.377 148.094 247.096 147.832C246.818 147.566 246.475 147.434 246.064 147.434C245.514 147.434 245.086 147.633 244.781 148.031C244.48 148.426 244.33 148.998 244.33 149.748V149.953C244.33 150.684 244.48 151.246 244.781 151.641C245.082 152.035 245.512 152.232 246.07 152.232ZM253.723 153C253.66 152.875 253.609 152.652 253.57 152.332C253.066 152.855 252.465 153.117 251.766 153.117C251.141 153.117 250.627 152.941 250.225 152.59C249.826 152.234 249.627 151.785 249.627 151.242C249.627 150.582 249.877 150.07 250.377 149.707C250.881 149.34 251.588 149.156 252.498 149.156H253.553V148.658C253.553 148.279 253.439 147.979 253.213 147.756C252.986 147.529 252.652 147.416 252.211 147.416C251.824 147.416 251.5 147.514 251.238 147.709C250.977 147.904 250.846 148.141 250.846 148.418H249.756C249.756 148.102 249.867 147.797 250.09 147.504C250.316 147.207 250.621 146.973 251.004 146.801C251.391 146.629 251.814 146.543 252.275 146.543C253.006 146.543 253.578 146.727 253.992 147.094C254.406 147.457 254.621 147.959 254.637 148.6V151.518C254.637 152.1 254.711 152.562 254.859 152.906V153H253.723ZM251.924 152.174C252.264 152.174 252.586 152.086 252.891 151.91C253.195 151.734 253.416 151.506 253.553 151.225V149.924H252.703C251.375 149.924 250.711 150.312 250.711 151.09C250.711 151.43 250.824 151.695 251.051 151.887C251.277 152.078 251.568 152.174 251.924 152.174ZM257.807 145.125V146.66H258.99V147.498H257.807V151.43C257.807 151.684 257.859 151.875 257.965 152.004C258.07 152.129 258.25 152.191 258.504 152.191C258.629 152.191 258.801 152.168 259.02 152.121V153C258.734 153.078 258.457 153.117 258.188 153.117C257.703 153.117 257.338 152.971 257.092 152.678C256.846 152.385 256.723 151.969 256.723 151.43V147.498H255.568V146.66H256.723V145.125H257.807ZM261.439 153H260.355V146.66H261.439V153ZM260.268 144.979C260.268 144.803 260.32 144.654 260.426 144.533C260.535 144.412 260.695 144.352 260.906 144.352C261.117 144.352 261.277 144.412 261.387 144.533C261.496 144.654 261.551 144.803 261.551 144.979C261.551 145.154 261.496 145.301 261.387 145.418C261.277 145.535 261.117 145.594 260.906 145.594C260.695 145.594 260.535 145.535 260.426 145.418C260.32 145.301 260.268 145.154 260.268 144.979ZM262.893 149.771C262.893 149.15 263.014 148.592 263.256 148.096C263.502 147.6 263.842 147.217 264.275 146.947C264.713 146.678 265.211 146.543 265.77 146.543C266.633 146.543 267.33 146.842 267.861 147.439C268.396 148.037 268.664 148.832 268.664 149.824V149.9C268.664 150.518 268.545 151.072 268.307 151.564C268.072 152.053 267.734 152.434 267.293 152.707C266.855 152.98 266.352 153.117 265.781 153.117C264.922 153.117 264.225 152.818 263.689 152.221C263.158 151.623 262.893 150.832 262.893 149.848V149.771ZM263.982 149.9C263.982 150.604 264.145 151.168 264.469 151.594C264.797 152.02 265.234 152.232 265.781 152.232C266.332 152.232 266.77 152.018 267.094 151.588C267.418 151.154 267.58 150.549 267.58 149.771C267.58 149.076 267.414 148.514 267.082 148.084C266.754 147.65 266.316 147.434 265.77 147.434C265.234 147.434 264.803 147.646 264.475 148.072C264.146 148.498 263.982 149.107 263.982 149.9ZM271.049 146.66L271.084 147.457C271.568 146.848 272.201 146.543 272.982 146.543C274.322 146.543 274.998 147.299 275.01 148.811V153H273.926V148.805C273.922 148.348 273.816 148.01 273.609 147.791C273.406 147.572 273.088 147.463 272.654 147.463C272.303 147.463 271.994 147.557 271.729 147.744C271.463 147.932 271.256 148.178 271.107 148.482V153H270.023V146.66H271.049Z" fill="black"/>
<path d="M115.844 76.4316C115.844 76.2441 115.898 76.0879 116.008 75.9629C116.121 75.8379 116.289 75.7754 116.512 75.7754C116.734 75.7754 116.902 75.8379 117.016 75.9629C117.133 76.0879 117.191 76.2441 117.191 76.4316C117.191 76.6113 117.133 76.7617 117.016 76.8828C116.902 77.0039 116.734 77.0645 116.512 77.0645C116.289 77.0645 116.121 77.0039 116.008 76.8828C115.898 76.7617 115.844 76.6113 115.844 76.4316ZM118.697 73.7715C118.697 73.1504 118.818 72.5918 119.061 72.0957C119.307 71.5996 119.646 71.2168 120.08 70.9473C120.518 70.6777 121.016 70.543 121.574 70.543C122.438 70.543 123.135 70.8418 123.666 71.4395C124.201 72.0371 124.469 72.832 124.469 73.8242V73.9004C124.469 74.5176 124.35 75.0723 124.111 75.5645C123.877 76.0527 123.539 76.4336 123.098 76.707C122.66 76.9805 122.156 77.1172 121.586 77.1172C120.727 77.1172 120.029 76.8184 119.494 76.2207C118.963 75.623 118.697 74.832 118.697 73.8477V73.7715ZM119.787 73.9004C119.787 74.6035 119.949 75.168 120.273 75.5938C120.602 76.0195 121.039 76.2324 121.586 76.2324C122.137 76.2324 122.574 76.0176 122.898 75.5879C123.223 75.1543 123.385 74.5488 123.385 73.7715C123.385 73.0762 123.219 72.5137 122.887 72.084C122.559 71.6504 122.121 71.4336 121.574 71.4336C121.039 71.4336 120.607 71.6465 120.279 72.0723C119.951 72.498 119.787 73.1074 119.787 73.9004ZM129.742 76.373C129.32 76.8691 128.701 77.1172 127.885 77.1172C127.209 77.1172 126.693 76.9219 126.338 76.5312C125.986 76.1367 125.809 75.5547 125.805 74.7852V70.6602H126.889V74.7559C126.889 75.7168 127.279 76.1973 128.061 76.1973C128.889 76.1973 129.439 75.8887 129.713 75.2715V70.6602H130.797V77H129.766L129.742 76.373ZM133.92 69.125V70.6602H135.104V71.498H133.92V75.4297C133.92 75.6836 133.973 75.875 134.078 76.0039C134.184 76.1289 134.363 76.1914 134.617 76.1914C134.742 76.1914 134.914 76.168 135.133 76.1211V77C134.848 77.0781 134.57 77.1172 134.301 77.1172C133.816 77.1172 133.451 76.9707 133.205 76.6777C132.959 76.3848 132.836 75.9688 132.836 75.4297V71.498H131.682V70.6602H132.836V69.125H133.92ZM143.107 73.0098C143.107 73.8457 142.967 74.5762 142.686 75.2012C142.404 75.8223 142.006 76.2969 141.49 76.625C140.975 76.9531 140.373 77.1172 139.686 77.1172C139.014 77.1172 138.418 76.9531 137.898 76.625C137.379 76.293 136.975 75.8223 136.686 75.2129C136.4 74.5996 136.254 73.8906 136.246 73.0859V72.4707C136.246 71.6504 136.389 70.9258 136.674 70.2969C136.959 69.668 137.361 69.1875 137.881 68.8555C138.404 68.5195 139.002 68.3516 139.674 68.3516C140.357 68.3516 140.959 68.5176 141.479 68.8496C142.002 69.1777 142.404 69.6562 142.686 70.2852C142.967 70.9102 143.107 71.6387 143.107 72.4707V73.0098ZM141.988 72.459C141.988 71.4473 141.785 70.6719 141.379 70.1328C140.973 69.5898 140.404 69.3184 139.674 69.3184C138.963 69.3184 138.402 69.5898 137.992 70.1328C137.586 70.6719 137.377 71.4219 137.365 72.3828V73.0098C137.365 73.9902 137.57 74.7617 137.98 75.3242C138.395 75.8828 138.963 76.1621 139.686 76.1621C140.412 76.1621 140.975 75.8984 141.373 75.3711C141.771 74.8398 141.977 74.0801 141.988 73.0918V72.459ZM145.158 77V71.498H144.156V70.6602H145.158V70.0098C145.158 69.3301 145.34 68.8047 145.703 68.4336C146.066 68.0625 146.58 67.877 147.244 67.877C147.494 67.877 147.742 67.9102 147.988 67.9766L147.93 68.8555C147.746 68.8203 147.551 68.8027 147.344 68.8027C146.992 68.8027 146.721 68.9062 146.529 69.1133C146.338 69.3164 146.242 69.6094 146.242 69.9922V70.6602H147.596V71.498H146.242V77H145.158ZM148.967 77V68.4688H151.756C152.682 68.4688 153.377 68.6602 153.842 69.043C154.311 69.4258 154.545 69.9922 154.545 70.7422C154.545 71.1406 154.432 71.4941 154.205 71.8027C153.979 72.1074 153.67 72.3438 153.279 72.5117C153.74 72.6406 154.104 72.8867 154.369 73.25C154.639 73.6094 154.773 74.0391 154.773 74.5391C154.773 75.3047 154.525 75.9062 154.029 76.3438C153.533 76.7812 152.832 77 151.926 77H148.967ZM150.092 73.0098V76.0801H151.949C152.473 76.0801 152.885 75.9453 153.186 75.6758C153.49 75.4023 153.643 75.0273 153.643 74.5508C153.643 73.5234 153.084 73.0098 151.967 73.0098H150.092ZM150.092 72.1074H151.791C152.283 72.1074 152.676 71.9844 152.969 71.7383C153.266 71.4922 153.414 71.1582 153.414 70.7363C153.414 70.2676 153.277 69.9277 153.004 69.7168C152.73 69.502 152.314 69.3945 151.756 69.3945H150.092V72.1074ZM155.986 73.7715C155.986 73.1504 156.107 72.5918 156.35 72.0957C156.596 71.5996 156.936 71.2168 157.369 70.9473C157.807 70.6777 158.305 70.543 158.863 70.543C159.727 70.543 160.424 70.8418 160.955 71.4395C161.49 72.0371 161.758 72.832 161.758 73.8242V73.9004C161.758 74.5176 161.639 75.0723 161.4 75.5645C161.166 76.0527 160.828 76.4336 160.387 76.707C159.949 76.9805 159.445 77.1172 158.875 77.1172C158.016 77.1172 157.318 76.8184 156.783 76.2207C156.252 75.623 155.986 74.832 155.986 73.8477V73.7715ZM157.076 73.9004C157.076 74.6035 157.238 75.168 157.562 75.5938C157.891 76.0195 158.328 76.2324 158.875 76.2324C159.426 76.2324 159.863 76.0176 160.188 75.5879C160.512 75.1543 160.674 74.5488 160.674 73.7715C160.674 73.0762 160.508 72.5137 160.176 72.084C159.848 71.6504 159.41 71.4336 158.863 71.4336C158.328 71.4336 157.896 71.6465 157.568 72.0723C157.24 72.498 157.076 73.1074 157.076 73.9004ZM167.031 76.373C166.609 76.8691 165.99 77.1172 165.174 77.1172C164.498 77.1172 163.982 76.9219 163.627 76.5312C163.275 76.1367 163.098 75.5547 163.094 74.7852V70.6602H164.178V74.7559C164.178 75.7168 164.568 76.1973 165.35 76.1973C166.178 76.1973 166.729 75.8887 167.002 75.2715V70.6602H168.086V77H167.055L167.031 76.373ZM170.764 70.6602L170.799 71.457C171.283 70.8477 171.916 70.543 172.697 70.543C174.037 70.543 174.713 71.2988 174.725 72.8105V77H173.641V72.8047C173.637 72.3477 173.531 72.0098 173.324 71.791C173.121 71.5723 172.803 71.4629 172.369 71.4629C172.018 71.4629 171.709 71.5566 171.443 71.7441C171.178 71.9316 170.971 72.1777 170.822 72.4824V77H169.738V70.6602H170.764ZM176.096 73.7773C176.096 72.8047 176.326 72.0234 176.787 71.4336C177.248 70.8398 177.852 70.543 178.598 70.543C179.34 70.543 179.928 70.7969 180.361 71.3047V68H181.445V77H180.449L180.396 76.3203C179.963 76.8516 179.359 77.1172 178.586 77.1172C177.852 77.1172 177.252 76.8164 176.787 76.2148C176.326 75.6133 176.096 74.8281 176.096 73.8594V73.7773ZM177.18 73.9004C177.18 74.6191 177.328 75.1816 177.625 75.5879C177.922 75.9941 178.332 76.1973 178.855 76.1973C179.543 76.1973 180.045 75.8887 180.361 75.2715V72.3594C180.037 71.7617 179.539 71.4629 178.867 71.4629C178.336 71.4629 177.922 71.668 177.625 72.0781C177.328 72.4883 177.18 73.0957 177.18 73.9004ZM186.824 75.3184C186.824 75.0254 186.713 74.7988 186.49 74.6387C186.271 74.4746 185.887 74.334 185.336 74.2168C184.789 74.0996 184.354 73.959 184.029 73.7949C183.709 73.6309 183.471 73.4355 183.314 73.209C183.162 72.9824 183.086 72.7129 183.086 72.4004C183.086 71.8809 183.305 71.4414 183.742 71.082C184.184 70.7227 184.746 70.543 185.43 70.543C186.148 70.543 186.73 70.7285 187.176 71.0996C187.625 71.4707 187.85 71.9453 187.85 72.5234H186.76C186.76 72.2266 186.633 71.9707 186.379 71.7559C186.129 71.541 185.812 71.4336 185.43 71.4336C185.035 71.4336 184.727 71.5195 184.504 71.6914C184.281 71.8633 184.17 72.0879 184.17 72.3652C184.17 72.627 184.273 72.8242 184.48 72.957C184.688 73.0898 185.061 73.2168 185.6 73.3379C186.143 73.459 186.582 73.6035 186.918 73.7715C187.254 73.9395 187.502 74.1426 187.662 74.3809C187.826 74.6152 187.908 74.9023 187.908 75.2422C187.908 75.8086 187.682 76.2637 187.229 76.6074C186.775 76.9473 186.188 77.1172 185.465 77.1172C184.957 77.1172 184.508 77.0273 184.117 76.8477C183.727 76.668 183.42 76.418 183.197 76.0977C182.979 75.7734 182.869 75.4238 182.869 75.0488H183.953C183.973 75.4121 184.117 75.7012 184.387 75.916C184.66 76.127 185.02 76.2324 185.465 76.2324C185.875 76.2324 186.203 76.1504 186.449 75.9863C186.699 75.8184 186.824 75.5957 186.824 75.3184Z" fill="black"/>
<path d="M142.844 118.432C142.844 118.244 142.898 118.088 143.008 117.963C143.121 117.838 143.289 117.775 143.512 117.775C143.734 117.775 143.902 117.838 144.016 117.963C144.133 118.088 144.191 118.244 144.191 118.432C144.191 118.611 144.133 118.762 144.016 118.883C143.902 119.004 143.734 119.064 143.512 119.064C143.289 119.064 143.121 119.004 143.008 118.883C142.898 118.762 142.844 118.611 142.844 118.432ZM151.34 115.9C151.34 116.865 151.119 117.643 150.678 118.232C150.236 118.822 149.639 119.117 148.885 119.117C148.115 119.117 147.51 118.873 147.068 118.385V121.438H145.984V112.66H146.975L147.027 113.363C147.469 112.816 148.082 112.543 148.867 112.543C149.629 112.543 150.23 112.83 150.672 113.404C151.117 113.979 151.34 114.777 151.34 115.801V115.9ZM150.256 115.777C150.256 115.062 150.104 114.498 149.799 114.084C149.494 113.67 149.076 113.463 148.545 113.463C147.889 113.463 147.396 113.754 147.068 114.336V117.365C147.393 117.943 147.889 118.232 148.557 118.232C149.076 118.232 149.488 118.027 149.793 117.617C150.102 117.203 150.256 116.59 150.256 115.777ZM155.787 113.633C155.623 113.605 155.445 113.592 155.254 113.592C154.543 113.592 154.061 113.895 153.807 114.5V119H152.723V112.66H153.777L153.795 113.393C154.15 112.826 154.654 112.543 155.307 112.543C155.518 112.543 155.678 112.57 155.787 112.625V113.633ZM159.303 119.117C158.443 119.117 157.744 118.836 157.205 118.273C156.666 117.707 156.396 116.951 156.396 116.006V115.807C156.396 115.178 156.516 114.617 156.754 114.125C156.996 113.629 157.332 113.242 157.762 112.965C158.195 112.684 158.664 112.543 159.168 112.543C159.992 112.543 160.633 112.814 161.09 113.357C161.547 113.9 161.775 114.678 161.775 115.689V116.141H157.48C157.496 116.766 157.678 117.271 158.025 117.658C158.377 118.041 158.822 118.232 159.361 118.232C159.744 118.232 160.068 118.154 160.334 117.998C160.6 117.842 160.832 117.635 161.031 117.377L161.693 117.893C161.162 118.709 160.365 119.117 159.303 119.117ZM159.168 113.434C158.73 113.434 158.363 113.594 158.066 113.914C157.77 114.23 157.586 114.676 157.516 115.25H160.691V115.168C160.66 114.617 160.512 114.191 160.246 113.891C159.98 113.586 159.621 113.434 159.168 113.434ZM166.727 117.318C166.727 117.025 166.615 116.799 166.393 116.639C166.174 116.475 165.789 116.334 165.238 116.217C164.691 116.1 164.256 115.959 163.932 115.795C163.611 115.631 163.373 115.436 163.217 115.209C163.064 114.982 162.988 114.713 162.988 114.4C162.988 113.881 163.207 113.441 163.645 113.082C164.086 112.723 164.648 112.543 165.332 112.543C166.051 112.543 166.633 112.729 167.078 113.1C167.527 113.471 167.752 113.945 167.752 114.523H166.662C166.662 114.227 166.535 113.971 166.281 113.756C166.031 113.541 165.715 113.434 165.332 113.434C164.938 113.434 164.629 113.52 164.406 113.691C164.184 113.863 164.072 114.088 164.072 114.365C164.072 114.627 164.176 114.824 164.383 114.957C164.59 115.09 164.963 115.217 165.502 115.338C166.045 115.459 166.484 115.604 166.82 115.771C167.156 115.939 167.404 116.143 167.564 116.381C167.729 116.615 167.811 116.902 167.811 117.242C167.811 117.809 167.584 118.264 167.131 118.607C166.678 118.947 166.09 119.117 165.367 119.117C164.859 119.117 164.41 119.027 164.02 118.848C163.629 118.668 163.322 118.418 163.1 118.098C162.881 117.773 162.771 117.424 162.771 117.049H163.855C163.875 117.412 164.02 117.701 164.289 117.916C164.562 118.127 164.922 118.232 165.367 118.232C165.777 118.232 166.105 118.15 166.352 117.986C166.602 117.818 166.727 117.596 166.727 117.318ZM172.914 117.318C172.914 117.025 172.803 116.799 172.58 116.639C172.361 116.475 171.977 116.334 171.426 116.217C170.879 116.1 170.443 115.959 170.119 115.795C169.799 115.631 169.561 115.436 169.404 115.209C169.252 114.982 169.176 114.713 169.176 114.4C169.176 113.881 169.395 113.441 169.832 113.082C170.273 112.723 170.836 112.543 171.52 112.543C172.238 112.543 172.82 112.729 173.266 113.1C173.715 113.471 173.939 113.945 173.939 114.523H172.85C172.85 114.227 172.723 113.971 172.469 113.756C172.219 113.541 171.902 113.434 171.52 113.434C171.125 113.434 170.816 113.52 170.594 113.691C170.371 113.863 170.26 114.088 170.26 114.365C170.26 114.627 170.363 114.824 170.57 114.957C170.777 115.09 171.15 115.217 171.689 115.338C172.232 115.459 172.672 115.604 173.008 115.771C173.344 115.939 173.592 116.143 173.752 116.381C173.916 116.615 173.998 116.902 173.998 117.242C173.998 117.809 173.771 118.264 173.318 118.607C172.865 118.947 172.277 119.117 171.555 119.117C171.047 119.117 170.598 119.027 170.207 118.848C169.816 118.668 169.51 118.418 169.287 118.098C169.068 117.773 168.959 117.424 168.959 117.049H170.043C170.062 117.412 170.207 117.701 170.477 117.916C170.75 118.127 171.109 118.232 171.555 118.232C171.965 118.232 172.293 118.15 172.539 117.986C172.789 117.818 172.914 117.596 172.914 117.318ZM178.041 119.117C177.182 119.117 176.482 118.836 175.943 118.273C175.404 117.707 175.135 116.951 175.135 116.006V115.807C175.135 115.178 175.254 114.617 175.492 114.125C175.734 113.629 176.07 113.242 176.5 112.965C176.934 112.684 177.402 112.543 177.906 112.543C178.73 112.543 179.371 112.814 179.828 113.357C180.285 113.9 180.514 114.678 180.514 115.689V116.141H176.219C176.234 116.766 176.416 117.271 176.764 117.658C177.115 118.041 177.561 118.232 178.1 118.232C178.482 118.232 178.807 118.154 179.072 117.998C179.338 117.842 179.57 117.635 179.77 117.377L180.432 117.893C179.9 118.709 179.104 119.117 178.041 119.117ZM177.906 113.434C177.469 113.434 177.102 113.594 176.805 113.914C176.508 114.23 176.324 114.676 176.254 115.25H179.43V115.168C179.398 114.617 179.25 114.191 178.984 113.891C178.719 113.586 178.359 113.434 177.906 113.434ZM181.51 115.777C181.51 114.805 181.74 114.023 182.201 113.434C182.662 112.84 183.266 112.543 184.012 112.543C184.754 112.543 185.342 112.797 185.775 113.305V110H186.859V119H185.863L185.811 118.32C185.377 118.852 184.773 119.117 184 119.117C183.266 119.117 182.666 118.816 182.201 118.215C181.74 117.613 181.51 116.828 181.51 115.859V115.777ZM182.594 115.9C182.594 116.619 182.742 117.182 183.039 117.588C183.336 117.994 183.746 118.197 184.27 118.197C184.957 118.197 185.459 117.889 185.775 117.271V114.359C185.451 113.762 184.953 113.463 184.281 113.463C183.75 113.463 183.336 113.668 183.039 114.078C182.742 114.488 182.594 115.096 182.594 115.9Z" fill="black"/>
</g>
<defs>
<clipPath id="clip0">
<rect width="449" height="314" fill="white"/>
</clipPath>
</defs>
</svg>
